# xmcd
#
# Track frame offsets:
#	150
#	45324
#	82513
#	98400
#	127111
#	164145
#
# Disc length: 2571 seconds
#
# Revision: 0
# Processed by: cddbd v1.5.2PL0 Copyright (c) Steve Scherf et al.
# Submitted via: audiograbber 1.83.01
#
DISCID=3c0a0906
DTITLE=Grateful Dead - 93-05-26 Cal Expo Amphitheatre, Sacramento CA
DYEAR=1900
DGENRE=
TTITLE0=Space
TTITLE1=Corrina
TTITLE2=Playing In The Band Reprise
TTITLE3=China Doll
TTITLE4=Around and Around
TTITLE5=Liberty
EXTD=
EXTT0=
EXTT1=
EXTT2=
EXTT3=
EXTT4=
EXTT5=
PLAYORDER=
